<svg width="35" height="30" viewBox="0 0 35 30" fill="none" xmlns="http://www.w3.org/2000/svg">
<path d="M20 18.5C18.75 18.5 17.55 18.3 16.43 17.93C16.08 17.82 15.69 17.9 15.41 18.17L13.21 20.37C10.38 18.93 8.06 16.62 6.62 13.78L8.82 11.57C9.1 11.31 9.18 10.92 9.07 10.57C8.7 9.45 8.5 8.25 8.5 7C8.5 6.45 8.05 6 7.5 6H4C3.45 6 3 6.45 3 7C3 16.39 10.61 24 20 24C20.55 24 21 23.55 21 23V19.5C21 18.95 20.55 18.5 20 18.5ZM19 15H21C21 10.03 16.97 6 12 6V8C15.87 8 19 11.13 19 15ZM15 15H17C17 12.24 14.76 10 12 10V12C13.66 12 15 13.34 15 15Z" fill="#1B1D1F"/>
<line x1="34.5" x2="34.5" y2="30" stroke="black"/>
</svg>
