<svg width="24" height="25" viewBox="0 0 24 25" fill="none" xmlns="http://www.w3.org/2000/svg">
<circle cx="12" cy="12" r="12" fill="#46B1DE"/>
<path d="M10.896 15.966C10.776 15.966 10.716 15.906 10.716 15.786V13.23H7.836C7.716 13.23 7.656 13.17 7.656 13.05V12.132C7.656 12.012 7.716 11.952 7.836 11.952H10.716V9.396C10.716 9.276 10.776 9.216 10.896 9.216H11.904C12.024 9.216 12.084 9.276 12.084 9.396V11.952H14.964C15.084 11.952 15.144 12.012 15.144 12.132V13.05C15.144 13.17 15.084 13.23 14.964 13.23H12.084V15.786C12.084 15.906 12.024 15.966 11.904 15.966H10.896Z" fill="white"/>
</svg>
